<?xml version="1.0" encoding="UTF-8"?>
<svg id="Calque_2" xmlns="http://www.w3.org/2000/svg" viewBox="0 0 528.87 294.69">
  <defs>
    <style>
      .cls-1 { fill: #1d1d1b; }
    </style>
  </defs>
  <g id="Calque_1-2">
    <path class="cls-1" d="M169.43,291.66l22.99-200.9c0-11.29-2.72-20.67-8.17-28.14
      -5.45-7.46-15.03-11.19-28.74-11.19s-25.02,6.56-33.89,19.67c-8.88,13.11-14.52,26.93-16.94,41.45
      -14.13,100.45-21.99,160.16-23.6,179.11H0L33.28,7.26C50.22,2.83,63.13.6,72.01.6c25.42,0,39.33,8.47,41.75,25.42
      C133.52,9.08,155.11.6,178.51.6c46.79,0,76.64,13.92,89.56,41.75C287.83,14.12,316.07,0,352.78,0c27.02,0,48.41,6.96,64.14,20.88
      15.73,13.92,23.6,31.37,23.6,52.34c0,6.05-1.21,16.75-3.63,32.07-9.29,60.51-13.92,96.01-13.92,106.5c0,18.97,6.25,28.44,18.76,28.44
      10.49,0,21.68-6.96,33.58-20.88,11.89-13.92,21.48-35.4,28.74-64.45,13.71,14.52,21.98,26.02,24.81,34.49
      -20.98,70.19-58.09,105.29-111.34,105.29-25.02,0-43.57-7.66-55.67-22.99-12.1-15.33-18.15-31.47-18.15-48.41l14.52-133.73
      c0-10.89-2.83-19.97-8.47-27.23-5.65-7.26-14.63-10.89-26.93-10.89s-23.1,4.64-32.37,13.92c-9.29,9.28-15.73,21.18-19.36,35.7
      -12.1,102.47-19.97,166.01-23.6,190.61h-78.06Z"/>
  </g>
</svg>