<svg xmlns="http://www.w3.org/2000/svg" viewBox="0 0 59.15 83.86">
  <g id="Calque_1-2">
    <path id="g-path" d="M8.96,83.86c-2.75,0-4.94-.51-6.55-1.54-1.61-1.03-2.42-2.33-2.42-3.92,0-1.49.56-2.89,1.68-4.2,1.12-1.31,2.58-2.49,4.38-3.54,1.8-1.05,3.76-1.98,5.88-2.8,2.12-.82,4.2-1.49,6.23-2.03,2.03-.54,3.81-.9,5.35-1.08,1.45-.23,3.05-.42,4.8-.56,1.75-.14,3.52-.27,5.32-.39,1.8-.12,3.42-.17,4.86-.17,1.73-2.94,3.14-5.72,4.24-8.33,1.1-2.61,2.07-5.62,2.91-9.03l.28-1.12c-.89.84-2.13,1.85-3.75,3.04-1.61,1.19-3.48,2.38-5.6,3.57-2.12,1.19-4.39,2.18-6.79,2.98-2.4.79-4.86,1.19-7.38,1.19-3.31,0-6.17-.79-8.58-2.38-2.4-1.59-4.25-3.79-5.53-6.62-1.28-2.82-1.93-6.08-1.93-9.76,0-2.19.28-4.54.84-7.03.56-2.5,1.47-5.05,2.73-7.67-1.45-1.49-2.58-3.15-3.4-4.97-.82-1.82-1.23-3.69-1.23-5.6,0-1.68.35-3.35,1.05-5,.7-1.66,1.8-3.25,3.29-4.79.42-.47.82-.7,1.19-.7.19,0,.28.09.28.28,0,.28-.16.61-.49.98-1.07,1.31-1.87,2.68-2.38,4.13-.51,1.45-.77,2.89-.77,4.34,0,1.63.31,3.24.94,4.83.63,1.59,1.53,3.06,2.7,4.41,1.21-2.57,2.88-5.06,5-7.49,2.12-2.43,4.61-4.61,7.46-6.54,2.85-1.94,5.95-3.48,9.31-4.62,3.36-1.14,6.86-1.71,10.5-1.71,4.85,0,8.69,1.05,11.52,3.15,2.82,2.1,4.23,5.27,4.23,9.52,0,2.01-.55,4.01-1.64,6.02-1.1,2.01-2.75,3.85-4.97,5.53-2.22,1.68-4.97,3.03-8.26,4.06-3.29,1.03-7.1,1.59-11.45,1.68-3.41.05-6.77-.38-10.08-1.29-3.31-.91-6.11-2.11-8.4-3.6-1.17,2.47-2.02,4.89-2.55,7.25-.54,2.36-.81,4.56-.81,6.61,0,4.71,1.15,8.31,3.46,10.78,2.31,2.47,5.4,3.71,9.27,3.71,2.1,0,4.21-.32,6.34-.95,2.12-.63,4.09-1.46,5.91-2.48s3.37-2.11,4.66-3.26c1.28-1.14,2.13-2.2,2.55-3.18,1.07-2.43,2.14-4.12,3.19-5.08,1.05-.96,2-1.43,2.83-1.43.7,0,1.29.31,1.79.94.49.63.67,1.48.52,2.56-.47,3.87-1.53,7.63-3.18,11.27-1.66,3.64-3.79,7.58-6.41,11.83,3.17.05,6.03.22,8.58.53,2.54.3,4.84.71,6.89,1.22.56.14.95.32,1.16.53s.32.38.32.52c0,.33-.28.49-.84.49-.28,0-.68-.07-1.19-.21-1.07-.28-2.5-.53-4.27-.74s-3.67-.36-5.71-.45c-2.03-.09-3.98-.14-5.84-.14-1.96,2.8-4.28,5.33-6.96,7.59-2.68,2.26-5.53,4.21-8.54,5.85-3.01,1.63-5.95,2.88-8.82,3.75-2.87.86-5.45,1.29-7.73,1.29ZM8.82,82.04c1.82,0,3.97-.36,6.44-1.08,2.47-.72,5.06-1.79,7.77-3.18,2.71-1.4,5.31-3.13,7.81-5.18,2.5-2.05,4.68-4.41,6.54-7.07-2.24.05-4.45.15-6.62.31-2.17.16-4.33.43-6.48.8-1.17.19-2.6.54-4.3,1.05-1.7.51-3.47,1.17-5.29,1.96-1.82.79-3.54,1.68-5.15,2.66-1.61.98-2.92,2.03-3.92,3.15-1,1.12-1.5,2.26-1.5,3.43,0,.84.36,1.58,1.08,2.21.72.63,1.92.95,3.6.95ZM30.94,27.86c3.17,0,6.25-.42,9.24-1.26,2.99-.84,5.67-2.01,8.05-3.5,2.38-1.49,4.28-3.23,5.71-5.21,1.42-1.98,2.13-4.1,2.13-6.34,0-2.05-.57-3.81-1.71-5.28-1.14-1.47-2.6-2.6-4.38-3.4-1.77-.79-3.66-1.19-5.67-1.19-3.17,0-6.21.61-9.1,1.82-2.89,1.21-5.58,2.83-8.05,4.87-2.47,2.03-4.73,4.33-6.75,6.9-2.03,2.57-3.75,5.2-5.15,7.91,1.91,1.45,4.23,2.59,6.96,3.43s5.64,1.26,8.72,1.26Z" fill="none" stroke="black"/>
  </g>
</svg>